<svg version="1.0" xmlns="http://www.w3.org/2000/svg"
 width="10" height="10" viewBox="0 0 232.000000 158.666667"
 preserveAspectRatio="xMidYMid meet">

<g transform="translate(0.000000,158.666667) scale(0.033333,-0.033333)"
fill="white" stroke="none">
<path d="M1940 4091 c-19 -5 -66 -14 -105 -21 -64 -12 -221 -58 -270 -79 -181
-80 -306 -154 -435 -258 -80 -64 -196 -182 -245 -248 -16 -22 -32 -42 -36 -45
-20 -17 -100 -149 -145 -239 -74 -149 -113 -266 -156 -466 -19 -92 -17 -469 4
-570 38 -181 76 -294 152 -446 45 -90 125 -222 145 -239 4 -3 20 -23 36 -45
145 -195 416 -398 660 -495 230 -92 375 -120 624 -120 178 0 243 7 391 42 254
60 496 184 685 349 118 103 1245 1234 1245 1249 0 9 -112 128 -250 265 -137
137 -250 254 -250 260 0 11 115 126 190 189 78 68 208 134 327 168 66 19 102
23 233 23 132 0 167 -4 235 -23 415 -119 685 -468 685 -887 0 -284 -137 -552
-375 -730 -57 -43 -198 -114 -265 -134 -25 -7 -58 -18 -75 -23 -50 -15 -255
-21 -337 -9 -145 20 -286 80 -401 169 l-59 45 -254 -254 c-140 -140 -254 -259
-254 -265 0 -29 205 -180 340 -251 132 -69 274 -119 450 -159 98 -21 446 -31
545 -15 145 25 302 66 380 101 189 84 306 153 435 257 80 64 196 182 245 248
16 22 32 42 36 45 39 34 177 289 219 405 73 200 95 339 95 585 0 177 -4 220
-24 310 -40 186 -84 306 -164 460 -36 67 -111 187 -126 200 -4 3 -20 23 -36
45 -49 66 -165 184 -245 248 -129 104 -259 181 -435 257 -78 35 -214 71 -350
95 -96 18 -399 20 -494 4 -170 -28 -393 -98 -500 -156 -124 -68 -210 -124
-284 -183 -95 -75 -1297 -1275 -1297 -1293 1 -7 113 -124 250 -262 138 -137
250 -255 250 -261 0 -10 -117 -126 -190 -188 -78 -68 -208 -134 -327 -168 -66
-19 -102 -23 -233 -23 -132 0 -167 4 -235 23 -92 27 -224 86 -289 131 -244
168 -396 455 -396 746 0 491 379 888 870 912 227 11 417 -46 583 -175 l59 -45
254 254 c140 140 254 259 254 265 0 26 -197 174 -320 241 -160 86 -339 145
-554 183 -67 11 -412 12 -466 1z"/>
</g>
</svg>
